<svg xmlns="http://www.w3.org/2000/svg" width="20.717" height="19.779" viewBox="0 0 20.717 19.779">
  <g id="Active" transform="translate(0 -1.049)">
    <path id="Path_17" data-name="Path 17" d="M9.64,1.5a.8.8,0,0,1,1.438,0l2.579,5.227a.8.8,0,0,0,.6.438L20.03,8a.8.8,0,0,1,.444,1.368L16.3,13.436a.8.8,0,0,0-.231.71l.985,5.745a.8.8,0,0,1-1.164.846l-5.159-2.713a.8.8,0,0,0-.746,0L4.826,20.736a.8.8,0,0,1-1.164-.846l.985-5.745a.8.8,0,0,0-.231-.71L.242,9.367A.8.8,0,0,1,.687,8l5.769-.838a.8.8,0,0,0,.6-.439Z" transform="translate(0)" fill="#face57"/>
  </g>
</svg>
