<svg xmlns="http://www.w3.org/2000/svg" width="134.662" height="96.086" viewBox="0 0 134.662 96.086">
  <g id="App_Architecture" data-name="App Architecture" transform="translate(-176 -506.385)">
    <g id="networking" transform="translate(176 436.285)">
      <g id="Group_6" data-name="Group 6" transform="translate(0 70.1)">
        <circle id="XMLID_496_" cx="7.622" cy="7.622" r="7.622" transform="translate(31.12 39.76)" fill="#b2aeae"/>
        <path id="XMLID_495_" d="M7.622,0A7.622,7.622,0,1,1,0,7.622,7.622,7.622,0,0,1,7.622,0Z" transform="translate(59.709 3.952)" fill="#e5e5e5"/>
        <path id="XMLID_491_" d="M7.622,0A7.622,7.622,0,1,1,0,7.622,7.622,7.622,0,0,1,7.622,0Z" transform="translate(88.298 39.76)" fill="#b2aeae"/>
        <path id="Path_20" data-name="Path 20" d="M10.126,166.185a10.11,10.11,0,0,0,2.669-19.866v-7.677H36.321v7.594a10.138,10.138,0,1,0,4.98.055V127.278a10.1,10.1,0,0,0,0-19.536v-6.6H64.827v6.549a10.126,10.126,0,1,0,5.008,0v-6.6H93.361v6.6a10.1,10.1,0,0,0,0,19.536v6.384H67.331a2.513,2.513,0,0,0-2.5,2.5v10.126a10.126,10.126,0,1,0,5.008,0v-7.622H93.361v7.649a10.114,10.114,0,1,0,4.98-.055v-7.594h23.526v7.677a10.089,10.089,0,1,0,4.98-.11V136.11a2.513,2.513,0,0,0-2.5-2.5h-26V127.25a10.106,10.106,0,0,0,0-19.646v-9a2.513,2.513,0,0,0-2.5-2.5h-26V90.021a10.126,10.126,0,1,0-5.008,0V96.1h-26a2.513,2.513,0,0,0-2.5,2.5v9.053a10.106,10.106,0,0,0,0,19.646v6.356h-26a2.513,2.513,0,0,0-2.5,2.5v10.043a10.121,10.121,0,0,0,2.311,19.976Zm62.351-48.7a5.145,5.145,0,1,1-5.145-5.145A5.155,5.155,0,0,1,72.477,117.482Zm0,38.577a5.145,5.145,0,1,1-5.145-5.145A5.155,5.155,0,0,1,72.477,156.059Zm57.178,0a5.145,5.145,0,1,1-5.145-5.145A5.155,5.155,0,0,1,129.654,156.059Zm-28.589,0a5.145,5.145,0,1,1-5.145-5.145A5.155,5.155,0,0,1,101.065,156.059Zm0-38.577a5.145,5.145,0,1,1-5.145-5.145A5.155,5.155,0,0,1,101.065,117.482ZM62.186,80.226a5.145,5.145,0,1,1,5.145,5.145A5.155,5.155,0,0,1,62.186,80.226ZM43.86,156.059a5.145,5.145,0,1,1-5.145-5.145A5.155,5.155,0,0,1,43.86,156.059ZM33.6,117.482a5.145,5.145,0,1,1,5.145,5.145A5.155,5.155,0,0,1,33.6,117.482ZM10.126,150.914a5.145,5.145,0,1,1-5.145,5.145A5.155,5.155,0,0,1,10.126,150.914Z" transform="translate(0 -70.1)" fill="#5d5d5d"/>
      </g>
    </g>
  </g>
</svg>
