<svg xmlns="http://www.w3.org/2000/svg" width="88.512" height="88.512" viewBox="0 0 88.512 88.512">
  <g id="App_Capabilitues" data-name="App Capabilitues" transform="translate(-534 -483.488)">
    <g id="Group_552" data-name="Group 552" transform="translate(-26 -8)">
      <g id="smartphone" transform="translate(560 491.488)">
        <circle id="Ellipse_22" data-name="Ellipse 22" cx="44.256" cy="44.256" r="44.256" transform="translate(0 0)" fill="#5f5d5d"/>
        <path id="Path_25" data-name="Path 25" d="M128.857,4.3V73.064a44.257,44.257,0,0,1-67.193,0V4.3a4.3,4.3,0,0,1,4.3-4.3h58.595A4.3,4.3,0,0,1,128.857,4.3Z" transform="translate(-51.004)" fill="#dbdbdb"/>
        <path id="Union_5" data-name="Union 5" d="M15464.84,1782.8a44.109,44.109,0,0,1-27.143-10.39c-.574-.489-1.141-.993-1.691-1.505v-61.828a2.558,2.558,0,0,1,2.561-2.561h55.293a2.85,2.85,0,0,1,.451.039,2.566,2.566,0,0,1,2.111,2.522V1770.9c-.553.512-1.119,1.016-1.7,1.505a44.077,44.077,0,0,1-26.162,10.349c-.166.009-.33.017-.5.023s-.322.013-.484.018c-.449.008-.906.016-1.365.016S15465.3,1782.8,15464.84,1782.8Z" transform="translate(-15421.953 -1694.302)" fill="#2e2c2c"/>
        <path id="Path_27" data-name="Path 27" d="M203.863,27.407H181.1a1.9,1.9,0,0,1-1.9-1.9h0a1.9,1.9,0,0,1,1.9-1.9h22.759a1.9,1.9,0,0,1,1.9,1.9h0A1.9,1.9,0,0,1,203.863,27.407Z" transform="translate(-148.227 -19.532)" fill="#2e2c2c"/>
      </g>
    </g>
    <g id="two-cogwheels-configuration-interface-symbol" transform="translate(557.994 542.016) rotate(-73)">
      <g id="Group_13" data-name="Group 13" transform="translate(0 0.006)">
        <path id="Path_50" data-name="Path 50" d="M166.611,153.514h-1.162a.959.959,0,0,1-.8-.621,9.2,9.2,0,0,0-.386-.924.948.948,0,0,1,.124-1l.827-.827a1.487,1.487,0,0,0,0-2.1l-1.342-1.342a1.486,1.486,0,0,0-2.1,0l-.827.827a.847.847,0,0,1-.591.212.943.943,0,0,1-.409-.088,9.249,9.249,0,0,0-.925-.387.959.959,0,0,1-.621-.8V145.3a1.487,1.487,0,0,0-1.486-1.486h-1.9a1.487,1.487,0,0,0-1.486,1.486v1.162a.958.958,0,0,1-.621.8,9.236,9.236,0,0,0-.924.386.955.955,0,0,1-.408.087.85.85,0,0,1-.593-.212l-.826-.825a1.486,1.486,0,0,0-2.1,0l-1.343,1.343a1.485,1.485,0,0,0,0,2.1l.827.827a.949.949,0,0,1,.125,1,9.183,9.183,0,0,0-.386.923.959.959,0,0,1-.8.621h-1.161A1.487,1.487,0,0,0,143.831,155v1.9a1.487,1.487,0,0,0,1.486,1.486h1.161a.958.958,0,0,1,.8.621,9.189,9.189,0,0,0,.386.923.949.949,0,0,1-.125,1l-.827.827a1.487,1.487,0,0,0,0,2.1l1.344,1.344a1.486,1.486,0,0,0,2.1,0l.827-.827a.849.849,0,0,1,.593-.212.941.941,0,0,1,.408.087,9.217,9.217,0,0,0,.923.386.959.959,0,0,1,.621.8V166.6a1.487,1.487,0,0,0,1.486,1.486h1.9A1.487,1.487,0,0,0,158.4,166.6v-1.162a.958.958,0,0,1,.621-.8,9.248,9.248,0,0,0,.924-.386.954.954,0,0,1,.408-.088.85.85,0,0,1,.593.212l.827.827a1.485,1.485,0,0,0,2.1,0l1.343-1.343a1.488,1.488,0,0,0,0-2.1l-.826-.827a.949.949,0,0,1-.125-1,9.209,9.209,0,0,0,.386-.924.958.958,0,0,1,.8-.621h1.161A1.487,1.487,0,0,0,168.1,156.9V155A1.488,1.488,0,0,0,166.611,153.514Zm-6.293,2.435a4.354,4.354,0,1,1-4.354-4.354A4.359,4.359,0,0,1,160.317,155.949Z" transform="translate(-136.072 -136.058)" fill="#fff"/>
        <path id="Path_51" data-name="Path 51" d="M10.89,7.931a.242.242,0,0,1,.166-.146h.582a.992.992,0,0,0,.99-.99V5.845a.992.992,0,0,0-.99-.99h-.582a.242.242,0,0,1-.166-.146,4.8,4.8,0,0,0-.2-.487.236.236,0,0,1,.014-.217l.414-.413a.992.992,0,0,0,0-1.4l-.671-.671a.991.991,0,0,0-1.4,0l-.413.413a.192.192,0,0,1-.121.034.228.228,0,0,1-.1-.019,4.807,4.807,0,0,0-.487-.2.242.242,0,0,1-.146-.166V1a.992.992,0,0,0-.99-.99H5.84a.992.992,0,0,0-.99.99v.582a.242.242,0,0,1-.146.166,4.823,4.823,0,0,0-.487.2.231.231,0,0,1-.1.019A.191.191,0,0,1,4,1.934L3.586,1.52a.991.991,0,0,0-1.4,0l-.671.671a.992.992,0,0,0,0,1.4l.413.413a.236.236,0,0,1,.014.217,4.823,4.823,0,0,0-.2.487.242.242,0,0,1-.166.146H.99a.992.992,0,0,0-.99.99v.949a.992.992,0,0,0,.99.99h.582a.242.242,0,0,1,.166.146,4.789,4.789,0,0,0,.2.487.236.236,0,0,1-.014.217l-.414.414a.991.991,0,0,0,0,1.4l.671.671a.991.991,0,0,0,1.4,0L4,10.706a.192.192,0,0,1,.121-.034.229.229,0,0,1,.1.019,4.818,4.818,0,0,0,.487.2.242.242,0,0,1,.146.166v.582a.992.992,0,0,0,.99.99h.949a.992.992,0,0,0,.99-.99v-.582a.241.241,0,0,1,.146-.166,4.82,4.82,0,0,0,.487-.2.229.229,0,0,1,.1-.019.192.192,0,0,1,.121.034l.414.413a.991.991,0,0,0,1.4,0l.671-.671a.992.992,0,0,0,0-1.4L10.7,8.635a.236.236,0,0,1-.014-.217A4.879,4.879,0,0,0,10.89,7.931ZM8.244,6.32A1.929,1.929,0,1,1,6.314,4.39,1.932,1.932,0,0,1,8.244,6.32Z" transform="translate(0 -0.006)" fill="#fff"/>
      </g>
    </g>
  </g>
</svg>
