<svg xmlns="http://www.w3.org/2000/svg" width="18" height="18" viewBox="0 0 18 18">
  <g id="Help" transform="translate(-0.008)">
    <path id="Path_138" data-name="Path 138" d="M9.008,0a9,9,0,1,0,9,9A9,9,0,0,0,9.008,0Zm.641,14a1.06,1.06,0,0,1-.726.28,1.1,1.1,0,0,1-.743-.276.967.967,0,0,1-.318-.771.994.994,0,0,1,.307-.74,1.037,1.037,0,0,1,.754-.3,1.025,1.025,0,0,1,1.04,1.039A.975.975,0,0,1,9.649,14Zm2.606-6.462a3.182,3.182,0,0,1-.573.771q-.331.325-1.19,1.092a4.925,4.925,0,0,0-.38.38,1.549,1.549,0,0,0-.213.3,1.446,1.446,0,0,0-.108.272q-.038.136-.116.478a.776.776,0,0,1-.83.726.85.85,0,0,1-.611-.237.932.932,0,0,1-.247-.7A2.6,2.6,0,0,1,8.17,9.6a2.566,2.566,0,0,1,.481-.754,11.033,11.033,0,0,1,.81-.771q.447-.391.645-.59a2,2,0,0,0,.335-.443,1.067,1.067,0,0,0,.136-.53,1.231,1.231,0,0,0-.415-.942A1.516,1.516,0,0,0,9.091,5.19a1.482,1.482,0,0,0-1.131.387,3.09,3.09,0,0,0-.614,1.141q-.238.789-.9.789a.886.886,0,0,1-.66-.275.843.843,0,0,1-.268-.6,2.525,2.525,0,0,1,.426-1.343A3.276,3.276,0,0,1,7.186,4.165a3.907,3.907,0,0,1,1.9-.447,4.064,4.064,0,0,1,1.786.374,2.9,2.9,0,0,1,1.2,1.015A2.491,2.491,0,0,1,12.5,6.5,2.149,2.149,0,0,1,12.256,7.541Z" transform="translate(0)" fill="#838383"/>
  </g>
</svg>
