<svg xmlns="http://www.w3.org/2000/svg" width="88.512" height="88.512" viewBox="0 0 88.512 88.512">
  <g id="Usability" transform="translate(-1086 -487.488)">
    <g id="smartphone" transform="translate(1086 487.488)">
      <circle id="Ellipse_22" data-name="Ellipse 22" cx="44.256" cy="44.256" r="44.256" transform="translate(0 0)" fill="#5f5d5d"/>
      <path id="Path_25" data-name="Path 25" d="M128.857,4.3V73.064a44.257,44.257,0,0,1-67.193,0V4.3a4.3,4.3,0,0,1,4.3-4.3h58.595A4.3,4.3,0,0,1,128.857,4.3Z" transform="translate(-51.004)" fill="#dbdbdb"/>
      <path id="Path_26" data-name="Path 26" d="M141.674,73.2v61.821q-.829.775-1.7,1.5a44.053,44.053,0,0,1-27.146,10.39c-.453.015-.91.022-1.367.022s-.914-.007-1.369-.022a44.045,44.045,0,0,1-27.144-10.39q-.867-.729-1.7-1.5V73.2a2.562,2.562,0,0,1,2.563-2.563h55.293a2.5,2.5,0,0,1,.453.041A2.562,2.562,0,0,1,141.674,73.2Z" transform="translate(-67.208 -58.424)" fill="#2e2c2c"/>
      <path id="Path_27" data-name="Path 27" d="M203.863,27.407H181.1a1.9,1.9,0,0,1-1.9-1.9h0a1.9,1.9,0,0,1,1.9-1.9h22.759a1.9,1.9,0,0,1,1.9,1.9h0A1.9,1.9,0,0,1,203.863,27.407Z" transform="translate(-148.227 -19.532)" fill="#413e3e"/>
      <path id="Path_28" data-name="Path 28" d="M116.531,131.4H92.743a1.679,1.679,0,0,1-1.679-1.679V105.932a1.679,1.679,0,0,1,1.679-1.679h23.787a1.679,1.679,0,0,1,1.679,1.679V129.72A1.679,1.679,0,0,1,116.531,131.4Z" transform="translate(-75.321 -86.23)" fill="#b9b9b9"/>
      <path id="Path_29" data-name="Path 29" d="M289.38,141.865H265.592a1.679,1.679,0,0,1-1.679-1.679V105.932a1.679,1.679,0,0,1,1.679-1.679H289.38a1.679,1.679,0,0,1,1.679,1.679v34.253A1.679,1.679,0,0,1,289.38,141.865Z" transform="translate(-218.289 -86.23)" fill="#4f4f4f"/>
      <path id="Path_30" data-name="Path 30" d="M291.059,337.028v18.447a44.053,44.053,0,0,1-27.146,10.39V337.028a1.679,1.679,0,0,1,1.678-1.68h23.79A1.679,1.679,0,0,1,291.059,337.028Z" transform="translate(-218.289 -277.375)" fill="#9e9e9e"/>
      <path id="Path_31" data-name="Path 31" d="M116.531,297.667H92.743a1.679,1.679,0,0,1-1.679-1.679V277.433a1.679,1.679,0,0,1,1.679-1.679h23.787a1.679,1.679,0,0,1,1.679,1.679v18.555A1.679,1.679,0,0,1,116.531,297.667Z" transform="translate(-75.321 -228.083)" fill="#393939"/>
      <path id="Path_32" data-name="Path 32" d="M118.211,419.21v14.63a44.045,44.045,0,0,1-27.144-10.39v-4.24a1.68,1.68,0,0,1,1.678-1.68h23.788A1.68,1.68,0,0,1,118.211,419.21Z" transform="translate(-75.324 -345.349)" fill="#4f4f4f"/>
    </g>
  </g>
</svg>
