<svg xmlns="http://www.w3.org/2000/svg" width="88.512" height="88.512" viewBox="0 0 88.512 88.512">
  <g id="Visual_Design" data-name="Visual Design" transform="translate(-682 -488.486)">
    <g id="Group_553" data-name="Group 553" transform="translate(-26 -8)">
      <g id="Group_209" data-name="Group 209" transform="translate(456 -4)">
        <g id="smartphone" transform="translate(252 500.487)">
          <circle id="Ellipse_22" data-name="Ellipse 22" cx="44.256" cy="44.256" r="44.256" transform="translate(0 0)" fill="#5f5d5d"/>
          <path id="Path_25" data-name="Path 25" d="M128.857,4.3V73.064a44.257,44.257,0,0,1-67.193,0V4.3a4.3,4.3,0,0,1,4.3-4.3h58.595A4.3,4.3,0,0,1,128.857,4.3Z" transform="translate(-51.004)" fill="#dbdbdb"/>
          <path id="Union_7" data-name="Union 7" d="M16057.841,1500.792a44.033,44.033,0,0,1-27.144-10.39c-.581-.484-1.146-.989-1.7-1.506v-61.82a2.561,2.561,0,0,1,2.56-2.564h55.3a2.382,2.382,0,0,1,.452.044,2.559,2.559,0,0,1,2.111,2.52v61.82c-.553.517-1.118,1.022-1.7,1.506a44.06,44.06,0,0,1-26.182,10.35c-.321.017-.643.03-.966.04-.452.016-.912.02-1.369.02S16058.3,1500.808,16057.841,1500.792Z" transform="translate(-16014.953 -1412.302)" fill="#2e2c2c"/>
          <path id="Path_27" data-name="Path 27" d="M203.863,27.407H181.1a1.9,1.9,0,0,1-1.9-1.9h0a1.9,1.9,0,0,1,1.9-1.9h22.759a1.9,1.9,0,0,1,1.9,1.9h0A1.9,1.9,0,0,1,203.863,27.407Z" transform="translate(-148.227 -19.532)" fill="#2e2c2c"/>
        </g>
        <g id="layers" transform="translate(274.956 533.633)">
          <path id="Path_133" data-name="Path 133" d="M21.191,27.472l-13.125-7.5L.044,24.528,21.191,36.61,42.338,24.528l-8.021-4.555Z" transform="translate(0 -3.381)" fill="#413e3e"/>
          <g id="Group_87" data-name="Group 87" transform="translate(0.044 25.73)">
            <path id="Path_134" data-name="Path 134" d="M21.191,38.472l-13.125-7.5L.044,35.528,21.191,47.61,42.338,35.528l-8.021-4.555Z" transform="translate(-0.044 -30.973)" fill="#a19f9f"/>
          </g>
          <g id="Group_88" data-name="Group 88" transform="translate(5.028 16.615)">
            <circle id="Ellipse_82" data-name="Ellipse 82" cx="0.831" cy="0.831" r="0.831" transform="translate(29.906 2.492)" fill="#f8f8f8"/>
            <circle id="Ellipse_84" data-name="Ellipse 84" cx="0.831" cy="0.831" r="0.831" transform="translate(24.922 2.492)" fill="#f8f8f8"/>
            <circle id="Ellipse_85" data-name="Ellipse 85" cx="0.831" cy="0.831" r="0.831" transform="translate(0 2.492)" fill="#f8f8f8"/>
            <circle id="Ellipse_86" data-name="Ellipse 86" cx="0.831" cy="0.831" r="0.831" transform="translate(4.984 2.492)" fill="#f8f8f8"/>
            <circle id="Ellipse_87" data-name="Ellipse 87" cx="0.831" cy="0.831" r="0.831" transform="translate(2.492 4.984)" fill="#f8f8f8"/>
            <circle id="Ellipse_88" data-name="Ellipse 88" cx="0.831" cy="0.831" r="0.831" transform="translate(7.477 4.984)" fill="#f8f8f8"/>
            <circle id="Ellipse_91" data-name="Ellipse 91" cx="0.831" cy="0.831" r="0.831" transform="translate(9.969 7.477)" fill="#f8f8f8"/>
            <circle id="Ellipse_92" data-name="Ellipse 92" cx="0.831" cy="0.831" r="0.831" transform="translate(12.461 9.969)" fill="#f8f8f8"/>
            <circle id="Ellipse_93" data-name="Ellipse 93" cx="0.831" cy="0.831" r="0.831" transform="translate(17.445 9.969)" fill="#f8f8f8"/>
            <circle id="Ellipse_94" data-name="Ellipse 94" cx="0.831" cy="0.831" r="0.831" transform="translate(14.953 7.477)" fill="#f8f8f8"/>
            <circle id="Ellipse_95" data-name="Ellipse 95" cx="0.831" cy="0.831" r="0.831" transform="translate(19.937 7.477)" fill="#f8f8f8"/>
            <circle id="Ellipse_97" data-name="Ellipse 97" cx="0.831" cy="0.831" r="0.831" transform="translate(22.43 4.984)" fill="#f8f8f8"/>
            <circle id="Ellipse_98" data-name="Ellipse 98" cx="0.831" cy="0.831" r="0.831" transform="translate(27.414 4.984)" fill="#f8f8f8"/>
            <circle id="Ellipse_100" data-name="Ellipse 100" cx="0.831" cy="0.831" r="0.831" transform="translate(24.922 7.477)" fill="#f8f8f8"/>
          </g>
          <path id="Path_135" data-name="Path 135" d="M42.338,12.009,21.191,24.091.044,12.009,21.191,0Z" fill="#dbdbdb"/>
        </g>
      </g>
    </g>
  </g>
</svg>
